<?xml version="1.0" encoding="UTF-8"?>
<svg width="18px" height="18px" viewBox="0 0 18 18" version="1.1" xmlns="http://www.w3.org/2000/svg" xmlns:xlink="http://www.w3.org/1999/xlink">
    <!-- Generator: Sketch 48.1 (47250) - http://www.bohemiancoding.com/sketch -->
    <title>Shape</title>
    <desc>Created with Sketch.</desc>
    <defs></defs>
    <g id="Камера" stroke="none" stroke-width="1" fill="none" fill-rule="evenodd" transform="translate(-197.000000, -85.000000)">
        <path d="M201.793218,85.0700994 C201.475939,85.0700994 201.21875,85.3300639 201.21875,85.6507445 L201.21875,87.8825994 C200.55261,88.1242271 200.069814,88.7699065 200.069814,89.5217123 C200.069814,90.4768794 200.848218,91.2636477 201.793218,91.2636477 C202.738218,91.2636477 203.516622,90.4768794 203.516622,89.5217123 C203.516622,88.7699065 203.033824,88.1242271 202.367686,87.8825994 L202.367686,85.6507445 C202.367686,85.3300639 202.110478,85.0700994 201.793218,85.0700994 Z M210.21875,85.0700994 C209.901471,85.0700994 209.644282,85.3300639 209.644282,85.6507445 L209.644282,87.8825994 C208.978142,88.1242271 208.495346,88.7699065 208.495346,89.5217123 C208.495346,90.4768794 209.27375,91.2636477 210.21875,91.2636477 C211.16375,91.2636477 211.942154,90.4768794 211.942154,89.5217123 C211.942154,88.7699065 211.459358,88.1242271 210.793218,87.8825994 L210.793218,85.6507445 C210.793218,85.3300639 210.53601,85.0700994 210.21875,85.0700994 Z M199.17675,86.0488892 C198.016554,86.0488892 197,87.193811 197,88.3664703 L197,100.741465 C197,101.914135 197.952171,102.876555 199.112367,102.876555 L212.887633,102.876555 C214.04781,102.876555 215,101.914135 215,100.741465 L215,88.3664703 C215,87.193811 214.112193,86.0488892 212.952016,86.0488892 L211.809064,86.0488892 C211.505572,86.0445537 211.175977,86.350436 211.15979,86.6882935 C211.143603,87.0261509 211.441189,87.3970174 211.744681,87.39268 L212.412598,87.39268 C212.955049,87.39268 213.37685,87.818171 213.376029,88.3664703 L213.376029,91.6507445 L198.504221,91.6507445 L198.504221,88.3664703 C198.504221,87.818171 198.925181,87.39268 199.467651,87.39268 L200.255319,87.39268 C200.558811,87.3970155 200.816079,87.0066705 200.831333,86.6882935 C200.846587,86.3699164 200.623194,86.0445517 200.319702,86.0488892 L199.17675,86.0488892 Z M203.330994,86.0700994 C203.013715,86.0700994 202.756526,86.4018288 202.756526,86.7225192 C202.756526,87.0431901 203.077545,87.374939 203.394823,87.374939 L208.756526,87.374939 C209.073804,87.374939 209.267164,87.0431901 209.267164,86.7225192 C209.267164,86.4018288 209.009975,86.0700994 208.692696,86.0700994 L203.330994,86.0700994 Z M201.793218,88.9410671 C202.117295,88.9410671 202.367686,89.1941529 202.367686,89.5217123 C202.367686,89.8492716 202.117295,90.1023574 201.793218,90.1023574 C201.469141,90.1023574 201.21875,89.8492716 201.21875,89.5217123 C201.21875,89.1941529 201.469141,88.9410671 201.793218,88.9410671 Z M210.21875,88.9410671 C210.542827,88.9410671 210.793218,89.1941529 210.793218,89.5217123 C210.793218,89.8492716 210.542827,90.1023574 210.21875,90.1023574 C209.894673,90.1023574 209.644282,89.8492716 209.644282,89.5217123 C209.644282,89.1941529 209.894673,88.9410671 210.21875,88.9410671 Z M198.574468,93.0533148 L213.425532,93.0533148 L213.425532,100.552965 C213.425532,101.07155 213.027369,101.473985 212.51432,101.473985 L199.48568,101.473985 C198.972612,101.473985 198.574468,101.07155 198.574468,100.552965 L198.574468,93.0533148 Z" id="Shape" fill="#45A59A" fill-rule="nonzero"></path>
    </g>
</svg>