<?xml version="1.0" encoding="UTF-8"?>
<svg width="23px" height="18px" viewBox="0 0 23 18" version="1.1" xmlns="http://www.w3.org/2000/svg" xmlns:xlink="http://www.w3.org/1999/xlink">
    <!-- Generator: Sketch 48.1 (47250) - http://www.bohemiancoding.com/sketch -->
    <title>Group 7</title>
    <desc>Created with Sketch.</desc>
    <defs></defs>
    <g id="Акции" stroke="none" stroke-width="1" fill="none" fill-rule="evenodd" transform="translate(-43.000000, -523.000000)">
        <g id="Group-6" transform="translate(0.000000, 503.000000)" fill="#0F6861">
            <g id="Group-7" transform="translate(43.000000, 20.000000)">
                <path d="M6.21935694,13.8480734 L16.8444094,3.47765499 C17.0518635,3.27517257 17.0518635,2.94694883 16.8444094,2.74446641 L14.1881463,0.151861814 C13.9806921,-0.0506206047 13.6444092,-0.0506206047 13.4369551,0.151861814 L0.155639511,13.1148848 C0.00370126058,13.2631818 -0.0417208386,13.4861458 0.0403576915,13.6798133 C0.122701848,13.8737402 0.316343429,14 0.531235115,14 L5.84376134,14 C5.98454328,14 6.11974708,13.945296 6.21935694,13.8480734 Z M1.81367894,12.9629582 L13.8125507,1.25190394 L15.7176226,3.1110607 L5.62382275,12.9629582 L1.81367894,12.9629582 Z" id="Shape" fill-rule="nonzero"></path>
                <path d="M21.876699,13.2385056 L17.0543678,13.2385056 L13.4036395,9.59736286 L17.2189314,5.79208859 L16.4247576,5 L8,13.4026371 L8.79417381,14.1947257 L12.6094657,10.3894515 L16.4247576,14.1947257 C16.530067,14.2997587 16.6730071,14.3588572 16.8218445,14.3588572 L21.876699,14.3588572 L21.876699,18 L23,18 L23,9.59736286 L21.876699,9.59736286 L21.876699,13.2385056 Z" id="Shape" fill-rule="nonzero"></path>
                <polygon id="Rectangle-7" points="11 3 16 3 16 4 11 4"></polygon>
            </g>
        </g>
    </g>
</svg>