<?xml version="1.0" encoding="UTF-8"?>
<svg width="21px" height="16px" viewBox="0 0 21 16" version="1.1" xmlns="http://www.w3.org/2000/svg" xmlns:xlink="http://www.w3.org/1999/xlink">
    <!-- Generator: Sketch 48.1 (47250) - http://www.bohemiancoding.com/sketch -->
    <title>Group 2</title>
    <desc>Created with Sketch.</desc>
    <defs></defs>
    <g id="Новости-Copy" stroke="none" stroke-width="1" fill="none" fill-rule="evenodd" transform="translate(-257.000000, -524.000000)">
        <g id="Group-6" transform="translate(0.000000, 503.000000)" fill="#1C5C55" fill-rule="nonzero">
            <g id="Group-2" transform="translate(257.000000, 21.000000)">
                <path d="M20.9755814,15.2705882 L20.9755814,7.90588235 C20.9755814,7.36470588 20.7313953,6.82352941 20.2918605,6.47058824 L19.2174419,5.6 L19.2174419,5.55294118 L17.2151163,1.38823529 C16.8244186,0.564705882 15.9453488,0.0235294118 14.9930233,0.0235294118 L5.93372093,0.0235294118 C4.90813953,0.0235294118 4.00465116,0.635294118 3.63837209,1.55294118 L2.1,5.55294118 L0.830232558,6.44705882 C0.31744186,6.8 0.0244186047,7.36470588 0.0244186047,7.97647059 L0.0244186047,15.2705882 C0.0244186047,15.6705882 0.341860465,15.9764706 0.756976744,15.9764706 L3.93139535,15.9764706 C4.34651163,15.9764706 4.66395349,15.6705882 4.66395349,15.2705882 L4.66395349,12.7529412 L16.3360465,12.7529412 L16.3360465,15.2705882 C16.3360465,15.6705882 16.6534884,15.9764706 17.0686047,15.9764706 L20.2430233,15.9764706 C20.6581395,15.9764706 20.9755814,15.6705882 20.9755814,15.2705882 Z M4.56627907,1.88235294 C4.78604651,1.34117647 5.32325581,0.964705882 5.93372093,0.964705882 L14.9930233,0.964705882 C15.5546512,0.964705882 16.0674419,1.29411765 16.3116279,1.78823529 L17.972093,5.27058824 L3.24767442,5.27058824 L4.56627907,1.88235294 Z M1.00116279,7.97647059 C1.00116279,7.67058824 1.14767442,7.41176471 1.39186047,7.22352941 L2.80813953,6.23529412 L18.4848837,6.23529412 L19.6569767,7.2 C19.8767442,7.38823529 19.9988372,7.62352941 19.9988372,7.90588235 L19.9988372,11.8117647 L1.00116279,11.8117647 L1.00116279,7.97647059 Z M3.6872093,15.0352941 L1.00116279,15.0352941 L1.00116279,12.7529412 L3.6872093,12.7529412 L3.6872093,15.0352941 Z M17.2883721,15.0352941 L17.2883721,12.7529412 L19.9744186,12.7529412 L19.9744186,15.0352941 L17.2883721,15.0352941 Z" id="Shape"></path>
                <path d="M2.90581395,9.81176471 L5.66511628,9.81176471 C5.93372093,9.81176471 6.15348837,9.6 6.15348837,9.34117647 C6.15348837,9.08235294 5.93372093,8.87058824 5.66511628,8.87058824 L2.90581395,8.87058824 C2.6372093,8.87058824 2.41744186,9.08235294 2.41744186,9.34117647 C2.41744186,9.6 2.6372093,9.81176471 2.90581395,9.81176471 Z" id="Shape"></path>
                <path d="M15.5790698,9.81176471 L18.094186,9.81176471 C18.3627907,9.81176471 18.5825581,9.6 18.5825581,9.34117647 C18.5825581,9.08235294 18.3627907,8.87058824 18.094186,8.87058824 L15.5790698,8.87058824 C15.3104651,8.87058824 15.0906977,9.08235294 15.0906977,9.34117647 C15.0906977,9.6 15.3104651,9.81176471 15.5790698,9.81176471 Z" id="Shape"></path>
            </g>
        </g>
    </g>
</svg>