<?xml version="1.0" encoding="UTF-8"?>
<svg width="18px" height="19px" viewBox="0 0 18 19" version="1.1" xmlns="http://www.w3.org/2000/svg" xmlns:xlink="http://www.w3.org/1999/xlink">
    <!-- Generator: Sketch 48.1 (47250) - http://www.bohemiancoding.com/sketch -->
    <title>Group 22</title>
    <desc>Created with Sketch.</desc>
    <defs>
        <rect id="path-1" x="4.14951905" y="13.0400635" width="1.5" height="5" rx="0.75"></rect>
        <rect id="path-2" x="8.14951905" y="13.0400635" width="1.5" height="5" rx="0.75"></rect>
        <rect id="path-3" x="12.1495191" y="13.0400635" width="1.5" height="5" rx="0.75"></rect>
    </defs>
    <g id="Умный-Дом" stroke="none" stroke-width="1" fill="none" fill-rule="evenodd" transform="translate(-233.000000, -227.000000)">
        <g id="Group-8" transform="translate(59.000000, 192.000000)">
            <g id="Group-13">
                <g id="Group-22" transform="translate(174.000000, 36.000000)">
                    <g id="Rectangle-11" transform="translate(4.899519, 15.540064) rotate(-330.000000) translate(-4.899519, -15.540064) ">
                        <use fill="#D8D8D8" fill-rule="evenodd" xlink:href="#path-1"></use>
                        <rect stroke="#000000" stroke-width="1" x="4.64951905" y="13.5400635" width="1" height="4" rx="0.5"></rect>
                    </g>
                    <g id="Rectangle-11-Copy" transform="translate(8.899519, 15.540064) rotate(-330.000000) translate(-8.899519, -15.540064) ">
                        <use fill="#D8D8D8" fill-rule="evenodd" xlink:href="#path-2"></use>
                        <rect stroke="#000000" stroke-width="1" x="8.64951905" y="13.5400635" width="1" height="4" rx="0.5"></rect>
                    </g>
                    <g id="Rectangle-11-Copy-2" transform="translate(12.899519, 15.540064) rotate(-330.000000) translate(-12.899519, -15.540064) ">
                        <use fill="#D8D8D8" fill-rule="evenodd" xlink:href="#path-3"></use>
                        <rect stroke="#000000" stroke-width="1" x="12.6495191" y="13.5400635" width="1" height="4" rx="0.5"></rect>
                    </g>
                    <path d="M4.3995834,3.70715541 C4.88181693,1.58376528 6.76348154,0 9.01123047,0 C11.624333,0 13.7426711,2.1404649 13.7426711,4.78086216 C13.7426711,4.83210655 13.7418732,4.88316263 13.7402893,4.93401841 C15.5612063,5.05877305 17,6.5907939 17,8.46237318 C17,10.4155606 15.4329966,11.9989319 13.5,11.9989319 L5.42560342,11.9999465 C5.32940317,12.0066992 5.23229802,12.0101318 5.13439941,12.0101318 C2.84734891,12.0101318 0.99332816,10.1367452 0.99332816,7.82580566 C0.99332816,5.7682547 2.46306178,4.05756404 4.3995834,3.70715541 Z" id="Combined-Shape" stroke="#000000" stroke-width="1.5"></path>
                </g>
            </g>
        </g>
    </g>
</svg>