<?xml version="1.0" encoding="UTF-8"?>
<svg width="23px" height="27px" viewBox="0 0 23 27" version="1.1" xmlns="http://www.w3.org/2000/svg" xmlns:xlink="http://www.w3.org/1999/xlink">
    <!-- Generator: Sketch 48.1 (47250) - http://www.bohemiancoding.com/sketch -->
    <title>Group 9</title>
    <desc>Created with Sketch.</desc>
    <defs></defs>
    <g id="Умный-Дом" stroke="none" stroke-width="1" fill="none" fill-rule="evenodd" transform="translate(-42.000000, -300.000000)">
        <g id="Group-15" transform="translate(24.000000, 280.000000)" stroke="#FFFFFF">
            <g id="Group-9" transform="translate(19.000000, 21.000000)">
                <polygon id="logo" stroke-width="1.4" fill="#284370" points="10.5987314 0 -4.54747351e-13 6.20659613 -4.54747351e-13 18.6213287 10.5987314 24.828695 21.1974627 18.6213287 21.1974627 6.20659613"></polygon>
                <path d="M14.8561461,10.9073202 C14.7449056,10.7126495 14.5641399,10.6153141 14.341659,10.6153141 L12.8121031,10.6153141 L13.549071,7.72306282 C13.5907861,7.55620217 13.549071,7.36153141 13.4517356,7.22248087 C13.3544002,7.08343033 13.1736345,7 12.9789637,7 L8.80744747,7 C8.51544134,7 8.27905541,7.19467076 8.2234352,7.4866769 L7.01369548,14.2723434 C6.97198032,14.439204 7.02760054,14.6199697 7.15274602,14.7729253 C7.27789151,14.9119758 7.43084711,14.9815011 7.61161281,14.9815011 L9.51660524,14.9815011 L9.25240921,19.7648398 C9.23850415,20.0429408 9.41926986,20.2932318 9.68346589,20.3766622 C9.75299116,20.4044723 9.79470632,20.4044723 9.85032654,20.4044723 C10.0589024,20.4044723 10.2674782,20.2932318 10.3787186,20.084656 L14.8978612,11.4913325 C14.9812915,11.2966618 14.9812915,11.0741809 14.8561461,10.9073202 Z M13.7298367,11.5886679 L10.3091933,18.0823282 L10.5316742,13.9942423 L8.04266949,13.9942423 L9.11335867,7.95944874 L12.5061919,7.95944874 L11.5745533,11.5747628 L13.7298367,11.5747628 L13.7298367,11.5886679 Z" id="Shape" stroke-width="0.4" fill="#FFFFFF" fill-rule="nonzero"></path>
            </g>
        </g>
    </g>
</svg>