<?xml version="1.0" encoding="UTF-8"?>
<svg width="22px" height="23px" viewBox="0 0 22 23" version="1.1" xmlns="http://www.w3.org/2000/svg" xmlns:xlink="http://www.w3.org/1999/xlink">
    <!-- Generator: Sketch 48.1 (47250) - http://www.bohemiancoding.com/sketch -->
    <title>Shape</title>
    <desc>Created with Sketch.</desc>
    <defs></defs>
    <g id="Умный-Дом" stroke="none" stroke-width="1" fill="none" fill-rule="evenodd" transform="translate(-34.000000, -418.000000)">
        <g id="Group-14" transform="translate(24.000000, 390.000000)" fill="#FFFFFF" fill-rule="nonzero">
            <path d="M21,28.3214363 C20.743575,28.3214363 20.5357143,28.529297 20.5357143,28.785722 L20.5357143,30.6428648 C20.5357143,30.8992898 20.743575,31.1071505 21,31.1071505 C21.256425,31.1071505 21.4642857,30.8992898 21.4642857,30.6428648 L21.4642857,28.785722 C21.4642857,28.529297 21.256425,28.3214363 21,28.3214363 Z M13.4347214,31.0418604 C13.3158875,31.0418604 13.1989339,31.0890202 13.1082589,31.1796952 C12.9269554,31.3609988 12.9269554,31.6512702 13.1082589,31.832597 L14.4213286,33.145655 C14.6025857,33.3269586 14.8929036,33.3269586 15.0742071,33.145655 C15.2555339,32.9643514 15.2555339,32.67408 15.0742071,32.4927532 L13.7611607,31.1796952 C13.6705089,31.0890202 13.5535089,31.0418604 13.4347214,31.0418604 Z M28.5652786,31.0418604 C28.4464911,31.0418604 28.3295143,31.0890202 28.2388393,31.1796952 L26.9257929,32.4927532 C26.7444661,32.67408 26.7444661,32.9643514 26.9257929,33.145655 C27.1070964,33.3269586 27.3973911,33.3269586 27.5786714,33.145655 L28.8917411,31.832597 C29.0730446,31.6512702 29.0730446,31.3609988 28.8917411,31.1796952 C28.8010661,31.0890202 28.6841357,31.0418604 28.5652786,31.0418604 Z M21,33.035722 C17.9288429,33.035722 14.9642857,35.4233786 14.9642857,38.8030211 C14.9642857,40.9343409 15.7938946,42.2888248 16.5602679,43.3733266 C17.3266411,44.4578284 17.9821429,45.2545195 17.9821429,46.5000123 L17.9821429,49.2857266 C17.9821429,50.0737123 18.6354625,50.6785838 19.375,50.6785838 L22.625,50.6785838 C23.3645375,50.6785838 24.0178571,50.0737123 24.0178571,49.2857266 L24.0178571,46.5000123 C24.0178571,45.2545195 24.6733589,44.4578284 25.4397321,43.3733266 C26.2061054,42.2888248 27.0357143,40.9343409 27.0357143,38.8030211 C27.0357143,35.4233786 24.0711571,33.035722 21,33.035722 Z M21,34.4449463 C23.3734818,34.4449463 25.6785714,36.2818406 25.6785714,38.8776269 C25.6785714,40.6177939 25.0562576,41.6100338 24.3760146,42.5726286 C23.7651846,43.4369947 23.0755631,44.2925353 22.9405438,45.5033921 L19.0594562,45.5033921 C18.9244369,44.2925353 18.2348154,43.4369947 17.6239854,42.5726286 C16.9437424,41.6100338 16.3214286,40.6177939 16.3214286,38.8776269 C16.3214286,36.2818406 18.6265182,34.4449463 21,34.4449463 Z M10.7142857,38.6071505 C10.4578607,38.6071505 10.25,38.8150113 10.25,39.0714363 C10.25,39.3278613 10.4578607,39.5357266 10.7142857,39.5357266 L12.5714286,39.5357266 C12.8278536,39.5357266 13.0357143,39.3278613 13.0357143,39.0714363 C13.0357143,38.8150113 12.8278536,38.6071505 12.5714286,38.6071505 L10.7142857,38.6071505 Z M29.4285714,38.6071505 C29.1721464,38.6071505 28.9642857,38.8150113 28.9642857,39.0714363 C28.9642857,39.3278613 29.1721464,39.5357266 29.4285714,39.5357266 L31.2857143,39.5357266 C31.5421393,39.5357266 31.75,39.3278613 31.75,39.0714363 C31.75,38.8150113 31.5421393,38.6071505 31.2857143,38.6071505 L29.4285714,38.6071505 Z M19.0803571,46.7890799 L22.9196429,46.7890799 L22.9196429,47.7176514 L19.0803571,47.7176514 L19.0803571,46.7890799 Z M19.0803571,48.7109549 L22.9196429,48.7109549 L22.9196429,49.1752407 C22.9196429,49.4542299 22.7138785,49.6395264 22.4930556,49.6395264 L19.5069444,49.6395264 C19.2861215,49.6395264 19.0803571,49.4542299 19.0803571,49.1752407 L19.0803571,48.7109549 Z" id="Shape"></path>
        </g>
    </g>
</svg>