<?xml version="1.0" encoding="UTF-8"?>
<svg width="18px" height="25px" viewBox="0 0 18 25" version="1.1" xmlns="http://www.w3.org/2000/svg" xmlns:xlink="http://www.w3.org/1999/xlink">
    <!-- Generator: Sketch 48.1 (47250) - http://www.bohemiancoding.com/sketch -->
    <title>lock_1</title>
    <desc>Created with Sketch.</desc>
    <defs></defs>
    <g id="Новости-Copy" stroke="none" stroke-width="1" fill="none" fill-rule="evenodd" transform="translate(-35.000000, -83.000000)">
        <g id="Group" transform="translate(0.000000, 64.000000)" fill="#45A59A" fill-rule="nonzero">
            <g id="Group-3" transform="translate(35.000000, 19.000000)">
                <path d="M15.0514791,9.60774905 L15.0514791,5.94765414 C15.051479,2.66285545 12.3421396,5.41802885e-16 9,0 C5.65786044,0 2.948521,2.66285545 2.94852095,5.94765414 L2.94852095,9.58334841 C2.94852095,9.58334841 2.94852095,9.58334841 2.94852095,9.60774905 C0.196053266,12.0653329 -0.735057188,15.9336812 0.605275631,19.3428872 C1.94560845,22.7520933 5.28133073,25 9,25 C12.7186693,25 16.0543915,22.7520933 17.3947244,19.3428872 C18.7350572,15.9336812 17.8039467,12.0653329 15.0514791,9.60774905 Z M4.8105145,5.94765414 C4.81051455,3.67356275 6.68621108,1.83004745 9,1.83004745 C11.3137889,1.83004745 13.1894854,3.67356275 13.1894855,5.94765414 L13.1894855,8.32061567 C10.5680299,6.96003283 7.43197005,6.96003283 4.8105145,8.32061567 L4.8105145,5.94765414 Z M9,23.1745008 C5.0579892,23.1745008 1.86235804,20.0336969 1.86235804,16.1593189 C1.86235804,12.2849409 5.0579892,9.14413703 9,9.14413703 C12.9420108,9.14413703 16.137642,12.2849409 16.137642,16.1593189 C16.137642,18.0198609 15.3856426,19.8041998 14.047075,21.1198016 C12.7085075,22.4354034 10.8930203,23.1745008 9,23.1745008 Z M9,15.5581174 C8.44771525,15.5581174 8,16.0058326 8,16.5581174 L8,18.5581174 C8,19.1104021 8.44771525,19.5581174 9,19.5581174 C9.55228475,19.5581174 10,19.1104021 10,18.5581174 L10,16.5581174 C10,16.0058326 9.55228475,15.5581174 9,15.5581174 Z" id="lock_1"></path>
            </g>
        </g>
    </g>
</svg>