<?xml version="1.0" encoding="UTF-8"?>
<svg width="85px" height="99px" viewBox="0 0 85 99" version="1.1" xmlns="http://www.w3.org/2000/svg" xmlns:xlink="http://www.w3.org/1999/xlink">
    <!-- Generator: Sketch 48.1 (47250) - http://www.bohemiancoding.com/sketch -->
    <title>Group</title>
    <desc>Created with Sketch.</desc>
    <defs></defs>
    <g id="Page-1" stroke="none" stroke-width="1" fill="none" fill-rule="evenodd">
        <g id="Group" transform="translate(-1.000000, 0.000000)">
            <path d="M43.0549746,0 L1.03614458,24.7476969 L1.03614458,74.2492323 L43.0549746,99 L85.0738046,74.2492323 L85.0738046,24.7476969 L43.0549746,0 Z M7.14722496,70.6487019 L7.14722496,28.3466919 L43.0549746,7.19184838 L78.9627242,28.3466919 L78.9627242,70.6487019 L71.1815159,75.2349639 L71.1815159,33.3889699 L43.0549746,16.8203883 L15.2627641,33.1924377 L15.2627641,75.4284252 L7.14722496,70.6487019 Z M21.9295361,79.3575328 L21.9295361,36.4597847 L43.0549746,24.0183784 L64.5116907,36.6578523 L64.5116907,79.1610007 L56.8022338,83.7058066 L56.8022338,49.6335804 L56.8022338,42.5968082 L56.8022338,42.4371258 L43.0549746,34.3424579 L29.5168629,42.3173641 L29.5168629,43.2447501 L29.5168629,49.5138187 L29.5168629,83.8255684 L21.9295361,79.3575328 Z M36.1836349,87.754676 L36.1836349,45.5862465 L43.0549746,41.5404479 L50.130882,45.7060083 L50.130882,87.6318434 L43.0549746,91.80201 L36.1836349,87.754676 Z" id="logo" fill="#0F6861"></path>
            <path d="M1.05284027,74.0180324 C0.933419844,74.1011369 0.933419844,74.1782036 1.05284027,74.2492323 C1.17226069,74.320261 15.1729721,82.5705169 43.0549746,99 L85.0738046,74.2492323 L85.0738046,73.9780248 L1.05284027,74.0180324 Z M73.2796321,73.9983294 L71.1815159,75.2349639 L71.1815159,74.0172055 L15.2627641,74.0121171 L15.2627641,75.4284252 L12.8495194,74.007122 M21.9295361,79.3575328 L21.9295361,74.0145977 L64.5116907,74.0053749 L64.5116907,79.1610007 L56.8022338,83.7058066 L56.8022338,73.9969791 L29.5168629,74.0180324 L29.5168629,83.8255684 M36.1836349,87.754676 L36.1836349,73.9780248 L50.130882,74.0097637 L50.130882,87.6318434 L43.0549746,91.80201" id="logo" fill="#284370"></path>
            <path d="M43.0549746,0 L1.03614458,24.7476969 L1.03614458,74.2492323 L56.2292556,42.1003507 L64.5172665,37.2727503 L78.9627242,28.3466919 L85.0738046,24.7476969 M7.14722496,70.6487019 L7.14722496,28.3466919 L43.0549746,7.19184838 L78.9627242,28.3466919 L71.1815159,33.3889699 L43.0549746,16.8203883 L15.2627641,33.1924377 L15.2627641,65.9729466 M21.9295361,62.0392919 L21.9295361,36.4597847 L43.0549746,24.0183784 L64.5116907,36.6578523 L64.5116907,37.2727503 L56.2292556,42.1003507 L43.0549746,34.3424579 L29.5168629,42.3173641 L29.5168629,43.2447501 L29.5168629,57.6534051 M36.1836349,53.7776945 L36.1836349,45.5862465 L43.0549746,41.5404479 L50.0992726,45.6905023" id="logo" fill="#7CDCD5"></path>
            <path d="M43,0 L1.03614458,24.7476969 L1.03614458,74.2492323 M7.13922964,63.4335783 L7.13922964,28.3466919 L36.8676861,10.8586554 L28.7401108,25.247964 L15.244151,33.1924377 L15.244151,49.1325536" id="Combined-Shape" fill="#E6B1A3"></path>
        </g>
    </g>
</svg>