<?xml version="1.0" encoding="UTF-8"?>
<svg width="21px" height="25px" viewBox="0 0 21 25" version="1.1" xmlns="http://www.w3.org/2000/svg" xmlns:xlink="http://www.w3.org/1999/xlink">
    <!-- Generator: Sketch 48.1 (47250) - http://www.bohemiancoding.com/sketch -->
    <title>logo</title>
    <desc>Created with Sketch.</desc>
    <defs></defs>
    <g id="Связь-с-УК_сообщение" stroke="none" stroke-width="1" fill="none" fill-rule="evenodd" transform="translate(-151.000000, -517.000000)">
        <g id="Group-2" transform="translate(0.000000, 503.000000)" fill="#0F6861">
            <path d="M161.03942,14.8720703 L151.03942,20.7280505 L151.03942,32.4414643 L161.03942,38.2981712 L171.03942,32.4414643 L171.03942,20.7280505 L161.03942,14.8720703 Z M152.493787,31.5894806 L152.493787,21.579671 L161.03942,16.5738578 L169.585053,21.579671 L169.585053,31.5894806 L167.733215,32.6747153 L167.733215,22.7728115 L161.03942,18.8522331 L154.425193,22.7263066 L154.425193,32.7204935 L152.493787,31.5894806 Z M156.011808,33.6502276 L156.011808,23.4994501 L161.03942,20.5554739 L166.145873,23.5463182 L166.145873,33.6037227 L164.31111,34.6791478 L164.31111,26.6167295 L164.31111,24.9516372 L161.03942,22.9984328 L157.817505,24.8855131 L157.817505,25.104958 L157.817505,26.5883906 L157.817505,34.7074867 L156.011808,33.6502276 Z M159.40412,35.6372207 L159.40412,25.6590199 L161.03942,24.7016736 L162.723405,25.6873588 L162.723405,35.6081552 L161.03942,36.5949304 L159.40412,35.6372207 Z" id="logo"></path>
        </g>
    </g>
</svg>