<?xml version="1.0" encoding="UTF-8"?>
<svg width="12px" height="10px" viewBox="0 0 12 10" version="1.1" xmlns="http://www.w3.org/2000/svg" xmlns:xlink="http://www.w3.org/1999/xlink">
    <!-- Generator: Sketch 48.1 (47250) - http://www.bohemiancoding.com/sketch -->
    <title>noun_1209570_cc</title>
    <desc>Created with Sketch.</desc>
    <defs></defs>
    <g id="Контакты-" stroke="none" stroke-width="1" fill="none" fill-rule="evenodd" transform="translate(-36.000000, -230.000000)">
        <g id="Group-4" transform="translate(36.000000, 129.789062)" fill="#9FC3C0" fill-rule="nonzero">
            <g id="noun_1209570_cc" transform="translate(0.000000, 101.000000)">
                <g id="Group">
                    <path d="M10.5846154,0 C10.9384615,0 11.2461538,0.155172414 11.4769231,0.403448276 L6.2,5.72586207 C5.96923077,5.95862069 5.56923077,5.95862069 5.33846154,5.72586207 L0,0.481034483 C0.215384615,0.186206897 0.569230769,0 0.953846154,0 L10.5846154,0 Z M8,4.53793103 L11.5076923,1 C11.5230769,1.06206897 11.5230769,1.13965517 11.5230769,1.20172414 L11.5230769,7.81206897 C11.5230769,7.85862069 11.5076923,7.92068966 11.5076923,7.96724138 L8,4.53793103 Z M3.50769231,4.44482759 L0,7.71896552 C0,7.70344828 0,7.68793103 0,7.67241379 L0,1.07758621 C0,1.04655172 0,1.03103448 0,1 L3.50769231,4.44482759 Z M11.5076923,8.58448276 C11.2923077,8.84827586 10.9692308,9.01896552 10.5846154,9.01896552 L0.969230769,9.01896552 C0.569230769,9.01896552 0.215384615,8.81724138 0,8.50689655 L3.73846154,5.01551724 L4.92307692,6.17931034 C5.15384615,6.41206897 5.47692308,6.5362069 5.78461538,6.5362069 C6.09230769,6.5362069 6.41538462,6.42758621 6.64615385,6.17931034 L7.81538462,5 L11.5076923,8.58448276 Z" id="Combined-Shape"></path>
                </g>
            </g>
        </g>
    </g>
</svg>