<?xml version="1.0" encoding="UTF-8"?>
<svg width="8px" height="12px" viewBox="0 0 8 12" version="1.1" xmlns="http://www.w3.org/2000/svg" xmlns:xlink="http://www.w3.org/1999/xlink">
    <!-- Generator: Sketch 48.1 (47250) - http://www.bohemiancoding.com/sketch -->
    <title>map-pin-silhouette</title>
    <desc>Created with Sketch.</desc>
    <defs></defs>
    <g id="Контакты-" stroke="none" stroke-width="1" fill="none" fill-rule="evenodd" transform="translate(-38.000000, -163.000000)">
        <g id="Group-4" transform="translate(36.000000, 129.789062)" fill="#9FC3C0" fill-rule="nonzero">
            <g id="map-pin-silhouette" transform="translate(2.000000, 34.000000)">
                <path d="M4,0 C1.79094003,0 0,1.72833489 0,3.86015102 C0,4.02335106 0.0135664828,4.18240598 0.0342448069,4.3400792 C0.376035677,7.3553727 3.74026523,10.8306162 3.74026523,10.8306162 C3.80021124,10.8953526 3.85799789,10.9352863 3.91364863,10.9641889 L3.91651215,10.9655706 L4.02854125,11 L4.14057036,10.9655706 L4.14343387,10.9641889 C4.19908461,10.9352636 4.25689473,10.8932688 4.31681727,10.8306162 C4.31681727,10.8306162 7.63253139,7.34916634 7.96645934,4.33321596 C7.98643352,4.17760398 8,4.01990812 8,3.85947149 C7.99927239,1.72833489 6.20905997,0 4,0 Z M4,6.34317002 C2.58152799,6.34317002 1.42706255,5.22906075 1.42706255,3.86017367 C1.42706255,2.49128659 2.58152799,1.37717732 4,1.37717732 C5.41847201,1.37717732 6.57223331,2.49128659 6.57223331,3.86017367 C6.57223331,5.22906075 5.41847201,6.34317002 4,6.34317002 Z" id="Shape"></path>
            </g>
        </g>
    </g>
</svg>