<?xml version="1.0" encoding="UTF-8"?>
<svg width="8px" height="14px" viewBox="0 0 8 14" version="1.1" xmlns="http://www.w3.org/2000/svg" xmlns:xlink="http://www.w3.org/1999/xlink">
    <!-- Generator: Sketch 48.1 (47250) - http://www.bohemiancoding.com/sketch -->
    <title>Shape</title>
    <desc>Created with Sketch.</desc>
    <defs></defs>
    <g id="Контакты-" stroke="none" stroke-width="1" fill="none" fill-rule="evenodd" transform="translate(-38.000000, -131.000000)">
        <g id="Group-4" transform="translate(36.000000, 129.789062)" fill="#9FC3C0" fill-rule="nonzero">
            <g id="noun_1265665_cc" transform="translate(2.000000, 2.000000)">
                <g id="Group">
                    <path d="M1.38461538,0 C0.6688,0 0.0798923077,0.532402 0.0048,1.22352941 L7.9952,1.22352941 C7.92010769,0.532402 7.3312,0 6.61538462,0 L1.38461538,0 Z M0,1.83529871 L0,10.4000046 L8,10.4000046 L8,1.83529871 L0,1.83529871 Z M0,11.0117693 L0,11.4705928 C0,12.2331575 0.617538462,12.8470634 1.38461538,12.8470634 L6.61538462,12.8470634 C7.38246154,12.8470634 8,12.2331575 8,11.4705928 L8,11.0117693 L0,11.0117693 Z M2.92307692,11.623534 L5.07692308,11.623534 C5.24686154,11.623534 5.38461538,11.7604775 5.38461538,11.9294164 C5.38461538,12.0983552 5.24686154,12.2352987 5.07692308,12.2352987 L2.92307692,12.2352987 C2.75313846,12.2352987 2.61538462,12.0983552 2.61538462,11.9294164 C2.61538462,11.7604775 2.75313846,11.623534 2.92307692,11.623534 Z" id="Shape"></path>
                </g>
            </g>
        </g>
    </g>
</svg>