<?xml version="1.0" encoding="UTF-8"?>
<svg width="20px" height="20px" viewBox="0 0 20 20" version="1.1" xmlns="http://www.w3.org/2000/svg" xmlns:xlink="http://www.w3.org/1999/xlink">
    <!-- Generator: Sketch 48.1 (47250) - http://www.bohemiancoding.com/sketch -->
    <title>open_1</title>
    <desc>Created with Sketch.</desc>
    <defs></defs>
    <g id="Новости-Copy" stroke="none" stroke-width="1" fill="none" fill-rule="evenodd" transform="translate(-192.000000, -85.000000)">
        <g id="Group-Copy" transform="translate(160.000000, 64.000000)" fill="#45A59A" fill-rule="nonzero">
            <g id="Group-4" transform="translate(27.000000, 16.000000)">
                <path d="M15,5 C9.48373306,5 5,9.483725 5,15 C5,20.5162778 9.48373333,25 15,25 C20.5162667,25 25,20.5162778 25,15 C25,9.483725 20.5162669,5 15,5 Z M15,6.55555556 C19.6699892,6.55555556 23.4444444,10.3300032 23.4444444,15 C23.4444444,19.6699889 19.6699894,23.4444444 15,23.4444444 C10.3300106,23.4444444 6.55555556,19.6699889 6.55555556,15 C6.55555556,10.3300032 10.3300108,6.55555556 15,6.55555556 Z M10.7824398,12.000949 C10.3374958,12.0428837 9.99808111,12.4174102 10.0000082,12.8643218 L10.0000082,17.3917579 C10.0000558,17.8685658 10.3865731,18.255083 10.863381,18.2551307 L15.0327899,18.2551307 C15.3441532,18.2595341 15.6337676,18.0959461 15.7907343,17.8270075 C15.947701,17.558069 15.947701,17.2254467 15.7907343,16.9565082 C15.6337676,16.6875697 15.3441532,16.5239816 15.0327899,16.5283851 L11.7267538,16.5283851 L11.7267538,13.7276946 L18.3809951,13.7276946 L18.3809951,17.3917579 C18.3765917,17.7031211 18.5401797,17.9927356 18.8091182,18.1497023 C19.0780568,18.3066689 19.4106791,18.3066689 19.6796176,18.1497023 C19.9485561,17.9927356 20.1121442,17.7031211 20.1077407,17.3917579 L20.1077407,12.8643218 C20.1076931,12.3875139 19.7211758,12.0009966 19.2443679,12.000949 L10.863381,12.000949 C10.8364154,11.9996837 10.8094053,11.9996837 10.7824398,12.000949 Z" id="open_1" transform="translate(15.000000, 15.000000) rotate(-315.000000) translate(-15.000000, -15.000000) "></path>
            </g>
        </g>
    </g>
</svg>