<?xml version="1.0" encoding="UTF-8"?>
<svg width="20px" height="19px" viewBox="0 0 20 19" version="1.1" xmlns="http://www.w3.org/2000/svg" xmlns:xlink="http://www.w3.org/1999/xlink">
    <!-- Generator: Sketch 48.1 (47250) - http://www.bohemiancoding.com/sketch -->
    <title>Star</title>
    <desc>Created with Sketch.</desc>
    <defs></defs>
    <g id="Камера" stroke="none" stroke-width="1" fill="none" fill-rule="evenodd" transform="translate(-25.000000, -85.000000)">
        <g id="Group-5" transform="translate(0.000000, 10.000000)" stroke="#45A59A" stroke-width="2">
            <path d="M34.8910042,90.192306 L29.89433,92.7335753 C29.7466475,92.8086855 29.5660384,92.749854 29.4909282,92.6021715 C29.4622769,92.545837 29.4521492,92.4818928 29.4619898,92.4194618 L30.3348234,86.8820469 L26.3738754,82.9152228 C26.256805,82.7979787 26.2569458,82.6080293 26.3741899,82.4909589 C26.4189134,82.4463016 26.4765983,82.4169096 26.5390147,82.4069764 L32.0751296,81.5259352 L34.6238032,76.5330337 C34.6991322,76.3854627 34.8798284,76.326899 35.0273994,76.402228 C35.0836914,76.4309628 35.1294703,76.4767418 35.1582051,76.5330337 L37.7068787,81.5259352 L43.2429937,82.4069764 C43.40662,82.4330166 43.5181555,82.5867717 43.4921153,82.750398 C43.4821821,82.8128144 43.4527902,82.8704993 43.4081329,82.9152228 L39.4471849,86.8820469 L40.3200185,92.4194618 C40.3458161,92.5831265 40.2340527,92.7367161 40.070388,92.7625137 C40.007957,92.7723544 39.9440128,92.7622266 39.8876783,92.7335753 L34.8910042,90.192306 Z" id="Star"></path>
        </g>
    </g>
</svg>