<?xml version="1.0" encoding="UTF-8"?>
<svg width="8px" height="21px" viewBox="0 0 8 21" version="1.1" xmlns="http://www.w3.org/2000/svg" xmlns:xlink="http://www.w3.org/1999/xlink">
    <!-- Generator: Sketch 48.1 (47250) - http://www.bohemiancoding.com/sketch -->
    <title>Group 10</title>
    <desc>Created with Sketch.</desc>
    <defs></defs>
    <g id="Умный-Дом" stroke="none" stroke-width="1" fill="none" fill-rule="evenodd" transform="translate(-41.000000, -472.000000)">
        <g id="Group-14" transform="translate(24.000000, 390.000000)" fill="#FFFFFF" fill-rule="nonzero">
            <g id="Group-10" transform="translate(17.000000, 82.000000)">
                <path d="M6.66665205,2.58461538 C6.66665205,1.15717172 5.47275126,0 4,0 C2.52724874,0 1.33334795,1.15717172 1.33334795,2.58461538 L1.33334795,14.238 C0.481950731,14.9694053 -0.0037605415,16.0203968 2.1928384e-05,17.1230769 C2.1928384e-05,19.2642424 1.79087311,21 4,21 C6.20912689,21 7.99997807,19.2642424 7.99997807,17.1230769 C8.00376054,16.0203968 7.51804927,14.9694053 6.66665205,14.238 L6.66665205,12.2769231 L7.99997807,12.2769231 L7.99997807,10.9846154 L6.66665205,10.9846154 L6.66665205,9.04615385 L7.99997807,9.04615385 L7.99997807,7.75384615 L6.66665205,7.75384615 L6.66665205,5.81538462 L7.99997807,5.81538462 L7.99997807,4.52307692 L6.66665205,4.52307692 L6.66665205,2.58461538 Z M4,19.7076923 C2.85402831,19.7058472 1.8374127,18.9945657 1.4747975,17.9409188 C1.11218231,16.8872718 1.48466104,15.7268917 2.40000877,15.0586154 L2.66667398,14.8615385 L2.66667398,2.58461538 C2.66667398,1.87089355 3.26362437,1.29230769 4,1.29230769 C4.73637563,1.29230769 5.33332602,1.87089355 5.33332602,2.58461538 L5.33332602,14.8615385 L5.59999123,15.0553846 C6.51823773,15.7228828 6.89277706,16.8849967 6.52980826,17.9404041 C6.16683946,18.9958114 5.14780813,19.7076923 4,19.7076923 Z" id="Shape"></path>
                <path d="M4.72720178,15.6278402 L4.72720178,9 L3.27279822,9 L3.27279822,15.6278402 C2.37685932,15.9331638 1.85677798,16.7520179 2.03471929,17.5771624 C2.21266059,18.4023069 3.03821847,19 4,19 C4.96178153,19 5.78733941,18.4023069 5.96528071,17.5771624 C6.14322202,16.7520179 5.62314068,15.9331638 4.72720178,15.6278402 Z" id="Shape"></path>
            </g>
        </g>
    </g>
</svg>