<?xml version="1.0" encoding="UTF-8"?>
<svg width="23px" height="27px" viewBox="0 0 23 27" version="1.1" xmlns="http://www.w3.org/2000/svg" xmlns:xlink="http://www.w3.org/1999/xlink">
    <!-- Generator: Sketch 48.1 (47250) - http://www.bohemiancoding.com/sketch -->
    <title>Group 18</title>
    <desc>Created with Sketch.</desc>
    <defs></defs>
    <g id="Умный-Дом" stroke="none" stroke-width="1" fill="none" fill-rule="evenodd" transform="translate(-111.000000, -300.000000)">
        <g id="Group-15" transform="translate(24.000000, 280.000000)">
            <g id="Group-18" transform="translate(88.000000, 21.000000)">
                <polygon id="logo-copy-9" stroke="#FFFFFF" stroke-width="1.4" fill="#284370" points="10.5987314 0 -4.54747351e-13 6.20659613 -4.54747351e-13 18.6213287 10.5987314 24.828695 21.1974627 18.6213287 21.1974627 6.20659613"></polygon>
                <g id="Group-16" transform="translate(4.000000, 5.000000)" fill="#FFFFFF" fill-rule="nonzero">
                    <path d="M4.00641047,14 C2.33198059,14 0.86576381,13.0593125 0.270869254,11.6035973 C-0.0787965457,10.749953 -0.0899012441,9.84142247 0.23742296,8.82621865 C0.555361051,7.83878088 1.04740495,6.85263454 1.83253356,5.6286043 C2.30659842,4.89015685 2.86474172,4.12265192 3.58905889,3.21321734 C3.70195666,3.07167512 3.83825361,3 3.99398378,3 C4.22400968,3 4.35330009,3.15884756 4.3958681,3.21102188 C4.71737556,3.60207101 5.03557805,4.01636611 5.36752921,4.47599089 C6.3082558,5.77983235 6.93527467,6.83042172 7.40061441,7.88294825 C7.72053548,8.60731896 7.90138342,9.21997981 7.9699946,9.8109444 C7.9808349,9.90199117 7.98638725,9.9940711 7.9919396,10.0862802 L7.99947493,10.2132291 C8.03173143,12.0182798 6.57397537,13.6589297 4.6806243,13.9483423 C4.45707614,13.9826947 4.23022302,14 4.00641047,14 Z M3.99609896,4.00345168 C3.40265859,4.76178736 2.93044452,5.41926129 2.52419763,6.05206866 C1.77753887,7.21617592 1.31246352,8.14549873 1.01607383,9.06552315 C0.747842489,9.89811684 0.751940652,10.6315277 1.02902932,11.3075984 C1.49952481,12.4587912 2.66802992,13.2025336 4.00641047,13.2025336 C4.18818381,13.2025336 4.37260112,13.1884568 4.55424226,13.1606908 C6.05073256,12.9319761 7.20403481,11.6480229 7.18354399,10.2355711 L7.17706625,10.1325139 C7.1723071,10.0554147 7.16807674,9.97818634 7.15895502,9.90147459 C7.09959776,9.39006293 6.93844744,8.84920635 6.65117947,8.19909364 C6.20910671,7.19912886 5.60733782,6.19257772 4.70032192,4.93561567 C4.46038111,4.60319808 4.22810784,4.29570536 3.99609896,4.00345168 Z" id="Shape-Copy" stroke="#FFFFFF" stroke-width="0.3"></path>
                    <path d="M8.35816282,3.18303179 C9.19646951,2.27008904 9.22218238,1.06503204 8.38466167,0.174546436 C8.26508002,0.0146893122 7.94013231,-0.0587678218 7.76059141,0.0553178787 C7.55129544,0.169489294 7.52131582,0.374946412 7.64100975,0.534803535 C8.26889765,1.21940345 8.26900993,2.13226049 7.64179574,2.81703183 C6.80360133,3.72997458 6.77777618,4.93503158 7.61529689,5.82534575 C7.73487854,5.98528859 8.05982625,6.05874573 8.23936715,5.94474574 C8.44866312,5.83048861 8.47864274,5.62511721 8.35883652,5.46517437 C7.73106091,4.78057445 7.73083635,3.86788885 8.35816282,3.18303179 Z" id="Shape"></path>
                    <path d="M10.3581225,3.18303179 C11.1964819,2.27008904 11.2221963,1.06503204 10.384623,0.174546436 C10.2651461,0.0146893122 9.940178,-0.0587678218 9.7607381,0.0553178787 C9.5513167,0.169489294 9.52144748,0.374946412 9.64103665,0.534803535 C10.2688517,1.21940345 10.2690763,2.13226049 9.64193497,2.81703183 C8.8035756,3.72997458 8.77774883,4.93503158 9.61532217,5.82534575 C9.73479904,5.98528859 10.0597672,6.05874573 10.2392071,5.94474574 C10.4485162,5.83048861 10.4784977,5.62511721 10.3586839,5.46517437 C9.73120576,4.78057445 9.73098117,3.86788885 10.3581225,3.18303179 Z" id="Shape"></path>
                    <path d="M12.3581585,3.1893401 C13.1964708,2.27458803 13.2221839,1.06714278 12.3846576,0.174892362 C12.2651874,0.0147184243 11.9401252,-0.0588842911 11.7606954,0.0554275107 C11.5512857,0.169825197 11.5214182,0.375689501 11.6410007,0.535863438 C12.2688928,1.22182013 12.2691173,2.13648632 11.6418989,2.82261478 C10.8035866,3.73736685 10.7777613,4.94481209 11.6152876,5.83689075 C11.7347578,5.99715057 11.5136129,6.04399809 12.2392498,5.95652737 C12.4485471,5.8420438 12.478527,5.63626538 12.3587199,5.47600555 C11.7311647,4.79004886 11.7309401,3.87555444 12.3581585,3.1893401 Z" id="Shape"></path>
                </g>
            </g>
        </g>
    </g>
</svg>