<?xml version="1.0" encoding="UTF-8"?>
<svg width="23px" height="27px" viewBox="0 0 23 27" version="1.1" xmlns="http://www.w3.org/2000/svg" xmlns:xlink="http://www.w3.org/1999/xlink">
    <!-- Generator: Sketch 48.1 (47250) - http://www.bohemiancoding.com/sketch -->
    <title>Group 19</title>
    <desc>Created with Sketch.</desc>
    <defs></defs>
    <g id="Умный-Дом" stroke="none" stroke-width="1" fill="none" fill-rule="evenodd" transform="translate(-180.000000, -300.000000)">
        <g id="Group-15" transform="translate(24.000000, 280.000000)">
            <g id="Group-19" transform="translate(157.000000, 21.000000)">
                <polygon id="logo-copy-10" stroke="#FFFFFF" stroke-width="1.4" fill="#284370" points="10.5987314 0 -4.54747351e-13 6.20659613 -4.54747351e-13 18.6213287 10.5987314 24.828695 21.1974627 18.6213287 21.1974627 6.20659613"></polygon>
                <g id="Group-16-Copy-2" transform="translate(5.000000, 5.000000)" fill="#FFFFFF" fill-rule="nonzero">
                    <path d="M4.00641047,14 C2.33198059,14 0.86576381,13.0593125 0.270869254,11.6035973 C-0.0787965457,10.749953 -0.0899012441,9.84142247 0.23742296,8.82621865 C0.555361051,7.83878088 1.04740495,6.85263454 1.83253356,5.6286043 C2.30659842,4.89015685 2.86474172,4.12265192 3.58905889,3.21321734 C3.70195666,3.07167512 3.83825361,3 3.99398378,3 C4.22400968,3 4.35330009,3.15884756 4.3958681,3.21102188 C4.71737556,3.60207101 5.03557805,4.01636611 5.36752921,4.47599089 C6.3082558,5.77983235 6.93527467,6.83042172 7.40061441,7.88294825 C7.72053548,8.60731896 7.90138342,9.21997981 7.9699946,9.8109444 C7.9808349,9.90199117 7.98638725,9.9940711 7.9919396,10.0862802 L7.99947493,10.2132291 C8.03173143,12.0182798 6.57397537,13.6589297 4.6806243,13.9483423 C4.45707614,13.9826947 4.23022302,14 4.00641047,14 Z M3.99609896,4.00345168 C3.40265859,4.76178736 2.93044452,5.41926129 2.52419763,6.05206866 C1.77753887,7.21617592 1.31246352,8.14549873 1.01607383,9.06552315 C0.747842489,9.89811684 0.751940652,10.6315277 1.02902932,11.3075984 C1.49952481,12.4587912 2.66802992,13.2025336 4.00641047,13.2025336 C4.18818381,13.2025336 4.37260112,13.1884568 4.55424226,13.1606908 C6.05073256,12.9319761 7.20403481,11.6480229 7.18354399,10.2355711 L7.17706625,10.1325139 C7.1723071,10.0554147 7.16807674,9.97818634 7.15895502,9.90147459 C7.09959776,9.39006293 6.93844744,8.84920635 6.65117947,8.19909364 C6.20910671,7.19912886 5.60733782,6.19257772 4.70032192,4.93561567 C4.46038111,4.60319808 4.22810784,4.29570536 3.99609896,4.00345168 Z" id="Shape-Copy" stroke="#FFFFFF" stroke-width="0.3"></path>
                    <path d="M11.2531392,2.05128733 C11.4325842,1.94926277 11.5436059,1.75891088 11.5440597,1.5524907 C11.5445135,1.34607051 11.4343298,1.15523232 11.2553351,1.05241977 C11.0763405,0.949607225 10.8559801,0.950584508 10.6779044,1.05498064 L10.0198358,1.43463561 C9.98434723,1.45512593 9.94063837,1.45519235 9.9050877,1.43480996 C9.86953703,1.41442758 9.84751184,1.37667364 9.84726535,1.33569523 L9.84726535,0.575234809 C9.84726535,0.257541396 9.58972395,0 9.27203054,0 C8.95433713,4.08728915e-16 8.69679573,0.257541396 8.69679573,0.575234809 L8.69679573,1.33569523 C8.69654924,1.37667364 8.67452405,1.41442758 8.63897338,1.43480996 C8.60342271,1.45519235 8.55971385,1.45512593 8.52422529,1.43463561 L7.86615667,1.05498064 C7.68808099,0.950584508 7.46772058,0.949607225 7.28872595,1.05241977 C7.10973131,1.15523232 6.9995476,1.34607051 7.0000014,1.5524907 C7.00045519,1.75891088 7.11147691,1.94926277 7.29092186,2.05128733 L7.94899048,2.4309423 C7.9850359,2.45137018 8.00731334,2.48960165 8.00731334,2.53103316 C8.00731334,2.57246467 7.9850359,2.61069614 7.94899048,2.63112402 L7.29092186,3.01077899 C7.11147691,3.11280354 7.00045519,3.30315543 7.0000014,3.50957562 C6.9995476,3.71599581 7.10973131,3.90683399 7.28872595,4.00964654 C7.46772058,4.11245909 7.68808099,4.11148181 7.86615667,4.00708568 L8.52422529,3.6274307 C8.55971385,3.60694038 8.60342271,3.60687397 8.63897338,3.62725635 C8.67452405,3.64763874 8.69654924,3.68539267 8.69679573,3.72637109 L8.69679573,4.48683151 C8.69679573,4.80452492 8.95433713,5.06206632 9.27203054,5.06206632 C9.58972395,5.06206632 9.84726535,4.80452492 9.84726535,4.48683151 L9.84726535,3.72637109 C9.84751184,3.68539267 9.86953703,3.64763874 9.9050877,3.62725635 C9.94063837,3.60687397 9.98434723,3.60694038 10.0198358,3.6274307 L10.6779044,4.00708568 C10.9527861,4.16337139 11.302276,4.06848714 11.4603817,3.79464819 C11.6184873,3.52080923 11.5259234,3.17069759 11.2531392,3.01077899 L10.5950706,2.63112402 C10.5590252,2.61069614 10.5367477,2.57246467 10.5367477,2.53103316 C10.5367477,2.48960165 10.5590252,2.45137018 10.5950706,2.4309423 L11.2531392,2.05128733 Z" id="Shape"></path>
                </g>
            </g>
        </g>
    </g>
</svg>