<?xml version="1.0" encoding="UTF-8"?>
<svg width="23px" height="27px" viewBox="0 0 23 27" version="1.1" xmlns="http://www.w3.org/2000/svg" xmlns:xlink="http://www.w3.org/1999/xlink">
    <!-- Generator: Sketch 48.1 (47250) - http://www.bohemiancoding.com/sketch -->
    <title>Group 20</title>
    <desc>Created with Sketch.</desc>
    <defs></defs>
    <g id="Умный-Дом" stroke="none" stroke-width="1" fill="none" fill-rule="evenodd" transform="translate(-249.000000, -300.000000)">
        <g id="Group-15" transform="translate(24.000000, 280.000000)">
            <g id="Group-20" transform="translate(226.000000, 21.000000)">
                <polygon id="logo-copy-11" stroke="#FFFFFF" stroke-width="1.4" fill="#284370" points="10.5987314 0 -4.54747351e-13 6.20659613 -4.54747351e-13 18.6213287 10.5987314 24.828695 21.1974627 18.6213287 21.1974627 6.20659613"></polygon>
                <g id="Group-17" transform="translate(6.000000, 7.000000)" fill="#FFFFFF" fill-rule="nonzero">
                    <path d="M2.03724424,5.83555828 C3.29470427,4.16182991 3.33327357,1.95255874 2.0769925,0.320001799 C1.89762002,0.0269304057 1.41019847,-0.107741007 1.14088711,0.101416111 C0.826943163,0.310730371 0.781973725,0.687401755 0.96151463,0.980473148 C1.90334647,2.235573 1.90351489,3.90914422 0.962693604,5.16455836 C-0.294598006,6.83828673 -0.333335725,9.04755789 0.922945336,10.6798005 C1.10231782,10.9730291 1.58973937,11.1077005 1.85905073,10.8987005 C2.17299468,10.6892291 2.21796412,10.3127149 2.03825479,10.0194863 C1.09659137,8.76438649 1.09625452,7.09112955 2.03724424,5.83555828 Z" id="Shape"></path>
                    <path d="M5.03718374,5.83555828 C6.29472279,4.16182991 6.33329451,1.95255874 5.0769345,0.320001799 C4.89771919,0.0269304057 4.410267,-0.107741007 4.14110716,0.101416111 C3.82697505,0.310730371 3.78217122,0.687401755 3.96155497,0.980473148 C4.90327756,2.235573 4.90361443,3.90914422 3.96290245,5.16455836 C2.7053634,6.83828673 2.66662325,9.04755789 3.92298325,10.6798005 C4.10219857,10.9730291 4.58965075,11.1077005 4.8588106,10.8987005 C5.17277427,10.6892291 5.21774654,10.3127149 5.03802591,10.0194863 C4.09680863,8.76438649 4.09647176,7.09112955 5.03718374,5.83555828 Z" id="Shape"></path>
                    <path d="M8.03723779,5.84712351 C9.29470624,4.17007805 9.3332758,1.95642843 8.07698633,0.320635996 C7.89778107,0.0269837778 7.41018783,-0.107954534 7.14104309,0.101617103 C6.82692862,0.311346194 6.7821273,0.688764085 6.96150098,0.982416304 C7.90333913,2.24000358 7.90367598,3.91689158 6.96284839,5.17479376 C5.70537994,6.85183922 5.66664196,9.06548884 6.92293143,10.7009664 C7.10213669,10.994776 6.77041934,11.0806632 7.85887467,10.9203002 C8.17282072,10.7104136 8.21779045,10.3331532 8.03807992,10.0393435 C7.09674706,8.78175624 7.0964102,7.10518315 8.03723779,5.84712351 Z" id="Shape"></path>
                </g>
            </g>
        </g>
    </g>
</svg>