<?xml version="1.0" encoding="UTF-8"?>
<svg width="12px" height="12px" viewBox="0 0 12 12" version="1.1" xmlns="http://www.w3.org/2000/svg" xmlns:xlink="http://www.w3.org/1999/xlink">
    <!-- Generator: Sketch 48.1 (47250) - http://www.bohemiancoding.com/sketch -->
    <title>Combined Shape</title>
    <desc>Created with Sketch.</desc>
    <defs></defs>
    <g id="Контакты-" stroke="none" stroke-width="1" fill="none" fill-rule="evenodd" transform="translate(-36.000000, -261.000000)">
        <g id="Group-4" transform="translate(36.000000, 129.789062)" fill="#9FC3C0" fill-rule="nonzero">
            <path d="M3.36978773,137.453261 C3.36978773,137.401081 3.37304898,137.349553 3.37413607,137.297373 L5.78268502,137.297373 L5.78268502,139.700704 C5.11890997,139.719836 4.47013673,139.826806 3.85441091,140.01248 C3.54198223,139.218472 3.36978773,138.348368 3.36978773,137.453261 Z M3.39739972,136.862538 C3.45501531,136.17463 3.61177319,135.509768 3.85593283,134.890346 C4.47144123,135.075585 5.11934481,135.18212 5.78268502,135.201687 L5.78268502,136.862538 L3.39739972,136.862538 Z M5.78268502,142.638664 C5.0425965,142.064465 4.44491632,141.298503 4.02964926,140.418398 C4.59015108,140.254031 5.17935199,140.158585 5.78268502,140.139887 L5.78268502,142.638664 Z M4.02964926,134.487906 C4.44491632,133.608018 5.0425965,132.842492 5.78268502,132.268293 L5.78268502,134.766418 C5.17935199,134.74772 4.5903685,134.652274 4.02964926,134.487906 Z M9.03894405,136.862538 C8.98067621,136.127015 8.81543906,135.414974 8.55627763,134.751633 C9.13808635,134.537477 9.68445604,134.2544 10.1775585,133.906532 C10.8713371,134.721847 11.3311747,135.741969 11.4518413,136.862538 L9.03894405,136.862538 Z M5.42264196,132 C4.65798528,132.618335 4.04225946,133.428432 3.6143822,134.352455 C3.07823111,134.157432 2.57577971,133.898053 2.1196382,133.582146 C2.98517651,132.715086 4.13835791,132.135016 5.42264196,132 Z M3.44392703,134.752503 C3.18454818,135.415843 3.01952844,136.12745 2.96147802,136.862538 L0.548798143,136.862538 C0.669247332,135.741752 1.12930236,134.721847 1.82308099,133.906098 C2.31640086,134.253965 2.86168347,134.538564 3.44392703,134.752503 Z M3.61481703,140.554936 C4.04247688,141.47896 4.6582027,142.288187 5.42220712,142.906522 C4.13879275,142.771506 2.98561134,142.191871 2.12050787,141.325246 C2.57643197,141.009338 3.07888337,140.750177 3.61481703,140.554936 Z M2.93495311,137.453261 C2.93495311,138.395548 3.11497464,139.311527 3.44218769,140.150105 C2.85972672,140.364261 2.3131396,140.648643 1.81960231,140.996946 C1.00754866,140.040092 0.516185547,138.80364 0.516185547,137.453261 C0.516185547,137.401081 0.518577137,137.349118 0.520099058,137.297373 L2.93951887,137.297373 C2.9386492,137.349553 2.93495311,137.401081 2.93495311,137.453261 Z M7.9705554,140.418616 C7.55507092,141.298503 6.95760816,142.064465 6.21751964,142.638664 L6.21751964,140.140104 C6.82107009,140.158802 7.41005358,140.254248 7.9705554,140.418616 Z M6.57799753,142.906522 C7.34243679,142.288187 7.95816261,141.478525 8.38560504,140.554067 C8.92197354,140.74909 9.42420752,141.008469 9.88034904,141.324376 C9.01502815,142.191436 7.86162933,142.771071 6.57799753,142.906522 Z M11.4796708,137.297373 C11.4814101,137.349118 11.4840191,137.401081 11.4838017,137.453478 C11.4838017,138.805379 10.9906992,140.043788 10.1766888,141.000859 C9.68380379,140.652557 9.13852118,140.367957 8.55627763,140.154019 C8.88457776,139.314136 9.06503413,138.396852 9.06503413,137.453261 C9.06503413,137.401081 9.06177287,137.349553 9.06046837,137.297373 L11.4796708,137.297373 Z M8.14405441,134.890998 C8.38821405,135.509768 8.54497193,136.175065 8.60280493,136.862756 L6.21751964,136.862756 L6.21751964,135.201905 C6.88064243,135.182337 7.52919826,135.076672 8.14405441,134.890998 Z M6.21751964,132.268293 C6.95760816,132.842492 7.55507092,133.608018 7.9705554,134.487906 C7.40983616,134.652274 6.82085267,134.74772 6.21751964,134.766418 L6.21751964,132.268293 Z M8.63041693,137.453261 C8.63041693,138.349673 8.458005,139.221081 8.14405441,140.016394 C7.52876343,139.830719 6.88085985,139.72462 6.21751964,139.705052 L6.21751964,137.297373 L8.62606858,137.297373 C8.62693825,137.349553 8.63041693,137.401081 8.63041693,137.453261 Z M8.38582246,134.352455 C7.95816261,133.428432 7.34243679,132.618335 6.57821495,132.000435 C7.86184674,132.135451 9.01524557,132.715086 9.88056646,133.582146 C9.42442494,133.898053 8.92219096,134.157649 8.38582246,134.352455 Z" id="Combined-Shape"></path>
        </g>
    </g>
</svg>